HIERARCHY
ROOT Hips
{
	OFFSET 54.952702 -37.264317 91.392891
	CHANNELS 6 Xposition Yposition Zposition Xrotation Yrotation Zrotation
	JOINT spine
	{
		OFFSET 0.000000 -0.393700 6.846367
		CHANNELS 3 Xrotation Yrotation Zrotation
		JOINT spine1
		{
			OFFSET 0.000000 -0.000004 9.496208
			CHANNELS 3 Xrotation Yrotation Zrotation
			JOINT spine2
			{
				OFFSET 0.000000 0.000000 9.099091
				CHANNELS 3 Xrotation Yrotation Zrotation
				JOINT Neck
				{
					OFFSET 0.000000 -1.113785 23.361214
					CHANNELS 3 Xrotation Yrotation Zrotation
					JOINT Head
					{
						OFFSET 0.000000 0.000000 7.058014
						CHANNELS 3 Xrotation Yrotation Zrotation
						End Site
						{
							OFFSET 0.000000 5.634186 17.084396
						}
					}
				}
				JOINT RightShoulder
				{
					OFFSET -3.831360 0.533489 9.826309
					CHANNELS 3 Xrotation Yrotation Zrotation
					JOINT RightArm
					{
						OFFSET 0.000000 -0.000004 12.888115
						CHANNELS 3 Xrotation Yrotation Zrotation
						JOINT RightArmRoll
						{
							OFFSET 0.000000 0.000000 6.506165
							CHANNELS 3 Xrotation Yrotation Zrotation
							JOINT RightForeArm
							{
								OFFSET 0.000000 -0.000004 18.950104
								CHANNELS 3 Xrotation Yrotation Zrotation
								JOINT RightForeArmRoll
								{
									OFFSET 0.000000 0.000000 7.300934
									CHANNELS 3 Xrotation Yrotation Zrotation
									JOINT RightHand
									{
										OFFSET 0.000000 -0.000004 14.651398
										CHANNELS 3 Xrotation Yrotation Zrotation
										End Site
										{
											OFFSET 0.000000 0.000000 0.100006
										}
									}
								}
							}
						}
					}
				}
				JOINT LeftShoulder
				{
					OFFSET 3.831360 0.533489 9.826309
					CHANNELS 3 Xrotation Yrotation Zrotation
					JOINT LeftArm
					{
						OFFSET 0.000000 -0.000004 12.888115
						CHANNELS 3 Xrotation Yrotation Zrotation
						JOINT LeftArmRoll
						{
							OFFSET 0.000000 0.000000 6.506165
							CHANNELS 3 Xrotation Yrotation Zrotation
							JOINT LeftForeArm
							{
								OFFSET 0.000000 -0.000004 18.950104
								CHANNELS 3 Xrotation Yrotation Zrotation
								JOINT LeftForeArmRoll
								{
									OFFSET 0.000000 0.000000 7.300919
									CHANNELS 3 Xrotation Yrotation Zrotation
									JOINT LeftHand
									{
										OFFSET 0.000000 -0.000004 14.651398
										CHANNELS 3 Xrotation Yrotation Zrotation
										End Site
										{
											OFFSET 0.000000 0.000000 0.100006
										}
									}
								}
							}
						}
					}
				}
			}
		}
	}
	JOINT RightUpLeg
	{
		OFFSET -6.068371 0.933475 -1.112778
		CHANNELS 3 Xrotation Yrotation Zrotation
		JOINT RightUpLegRoll
		{
			OFFSET 0.000000 -0.000004 17.179596
			CHANNELS 3 Xrotation Yrotation Zrotation
			JOINT RightLeg
			{
				OFFSET 0.000000 0.000004 -21.274300
				CHANNELS 3 Xrotation Yrotation Zrotation
				JOINT RightLegRoll
				{
					OFFSET 0.000000 -0.000004 21.343903
					CHANNELS 3 Xrotation Yrotation Zrotation
					JOINT RightFoot
					{
						OFFSET 0.000000 0.000000 17.765198
						CHANNELS 3 Xrotation Yrotation Zrotation
						JOINT RightToeBase
						{
							OFFSET 0.000000 -0.000004 14.850815
							CHANNELS 3 Xrotation Yrotation Zrotation
							End Site
							{
								OFFSET 0.006294 0.829006 7.192123
							}
						}
					}
				}
			}
		}
	}
	JOINT LeftUpLeg
	{
		OFFSET 6.068371 0.933475 -1.112778
		CHANNELS 3 Xrotation Yrotation Zrotation
		JOINT LeftUpLegRoll
		{
			OFFSET 0.000000 -0.000004 17.179703
			CHANNELS 3 Xrotation Yrotation Zrotation
			JOINT LeftLeg
			{
				OFFSET 0.000000 0.000000 21.274208
				CHANNELS 3 Xrotation Yrotation Zrotation
				JOINT LeftLegRoll
				{
					OFFSET 0.000000 -0.000004 21.541199
					CHANNELS 3 Xrotation Yrotation Zrotation
					JOINT LeftFoot
					{
						OFFSET 0.000000 -0.000004 17.567902
						CHANNELS 3 Xrotation Yrotation Zrotation
						JOINT LeftToeBase
						{
							OFFSET 0.000000 -0.000004 14.850800
							CHANNELS 3 Xrotation Yrotation Zrotation
							End Site
							{
								OFFSET -0.028210 0.829006 7.192139
							}
						}
					}
				}
			}
		}
	}
}
MOTION
Frames: 11
Frame Time: 0.041667
52.346004 4.851379 58.873894 -1.934390 4.041514 -1.631313 -0.784553 -0.678514 0.403632 2.445639 -1.359111 0.810189 4.090836 -1.349415 0.826706 12.132645 -3.397224 0.120432 -4.002855 2.769817 0.259542 14.420833 -73.705555 13.901793 -66.990605 -115.992117 -76.384567 -0.000001 0.000015 -0.000010 39.858983 -14.634966 4.339379 -0.000002 0.000006 -3.010399 -4.999625 -7.998746 -0.000024 -6.724021 60.566655 8.034824 -51.451409 128.097889 53.887829 0.000002 0.000000 0.000002 29.469592 19.673107 -4.268203 0.000002 -0.000003 3.000001 -5.000338 7.999178 -0.000202 -78.470793 -177.426062 4.441084 179.999964 0.000005 -1.265998 107.009953 -1.751069 -3.951122 0.000004 0.000004 1.601030 66.721229 7.201481 1.521287 25.456854 -7.355619 -0.000002 -82.532058 162.427964 -0.365630 -0.000005 -0.000003 -0.867915 -80.250147 -1.823016 2.360297 -0.000004 0.000000 -1.914469 67.264324 -7.194363 -1.483966 25.456960 7.355612 -0.000000 
52.344002 4.853260 58.872978 -1.922319 4.045270 -1.630290 -0.785919 -0.679895 0.403631 2.443021 -1.362681 0.809284 4.088211 -1.352981 0.825817 12.201271 -3.342063 0.123916 -4.062742 2.727659 0.259910 14.584006 -73.715964 14.075244 -66.958482 -115.908829 -76.244350 0.000000 0.000015 -0.000010 39.891932 -14.584486 4.318155 -0.000003 0.000006 -3.010399 -4.999628 -7.998751 -0.000026 -6.683154 60.622696 7.991591 -51.447577 128.033986 53.811318 0.000001 0.000000 0.000002 29.407410 19.662296 -4.254251 0.000003 -0.000004 3.000001 -5.000336 7.999181 -0.000202 -78.480533 -177.428411 4.443433 179.999964 0.000005 -1.265998 107.012542 -1.753396 -3.952730 0.000005 0.000004 1.601010 66.722602 7.201471 1.521296 25.456856 -7.355619 -0.000002 -82.548198 162.430668 -0.356845 -0.000004 -0.000003 -0.867905 -80.250099 -1.824952 2.358659 -0.000004 0.000000 -1.914682 67.264017 -7.194371 -1.483787 25.456955 7.355613 -0.000000 
52.332703 4.856510 58.879787 -1.909948 4.049116 -1.629375 -0.787409 -0.681307 0.403627 2.440184 -1.366370 0.808297 4.085377 -1.356665 0.824847 12.270583 -3.285502 0.127258 -4.123102 2.684164 0.260132 14.755283 -73.727056 14.257259 -66.925110 -115.822359 -76.100260 -0.000001 0.000014 -0.000009 39.925003 -14.533136 4.296403 -0.000006 0.000005 -3.010400 -4.999626 -7.998750 -0.000026 -6.640773 60.680712 7.946760 -51.444647 127.968102 53.734160 0.000001 0.000001 0.000002 29.342489 19.652213 -4.240184 0.000001 -0.000002 3.000000 -5.000338 7.999179 -0.000201 -78.490560 -177.430829 4.445362 179.999964 0.000005 -1.265998 107.015226 -1.755735 -3.954345 0.000004 0.000004 1.601010 66.724070 7.201475 1.521198 25.456854 -7.355619 -0.000002 -82.564344 162.433387 -0.349160 -0.000004 -0.000004 -0.867901 -80.249955 -1.826939 2.356932 -0.000004 0.000000 -1.914890 67.263710 -7.194379 -1.483609 25.456960 7.355615 -0.000002 
52.337601 4.860291 58.882484 -1.897377 4.053035 -1.628535 -0.788983 -0.682740 0.403623 2.437188 -1.370130 0.807253 4.082393 -1.360421 0.823819 12.340489 -3.227961 0.130461 -4.183787 2.639757 0.260220 14.932344 -73.738517 14.445369 -66.891314 -115.733498 -75.953835 -0.000001 0.000014 -0.000010 39.958304 -14.481234 4.274339 -0.000007 0.000006 -3.010398 -4.999625 -7.998752 -0.000027 -6.597274 60.740169 7.900732 -51.442861 127.900401 53.657273 0.000003 0.000000 0.000002 29.275417 19.642646 -4.225948 0.000003 -0.000004 3.000001 -5.000333 7.999181 -0.000202 -78.500635 -177.433466 4.448062 179.999964 0.000005 -1.265998 107.017938 -1.757778 -3.954993 0.000005 0.000004 1.601010 66.725648 7.201489 1.521199 25.456858 -7.355618 -0.000002 -82.580791 162.435969 -0.341135 -0.000005 -0.000002 -0.867898 -80.249914 -1.828890 2.355204 -0.000004 0.000000 -1.915110 67.263382 -7.194350 -1.483523 25.456959 7.355613 -0.000000 
52.324905 4.858585 58.883595 -1.884676 4.056981 -1.627744 -0.790600 -0.684184 0.403618 2.434110 -1.373940 0.806177 4.079308 -1.364237 0.822760 12.410593 -3.169857 0.133511 -4.244670 2.594803 0.260190 15.112760 -73.750122 14.637041 -66.857805 -115.642889 -75.806897 -0.000000 0.000013 -0.000012 39.991734 -14.428947 4.252004 -0.000006 0.000005 -3.010400 -4.999628 -7.998747 -0.000026 -6.553049 60.800445 7.853935 -51.441457 127.831649 53.580283 0.000001 0.000000 0.000003 29.207333 19.633387 -4.211732 -0.000001 -0.000001 3.000001 -5.000338 7.999178 -0.000202 -78.511010 -177.436171 4.450563 179.999964 0.000005 -1.265998 107.020813 -1.760135 -3.956590 0.000005 0.000004 1.601010 66.727226 7.201506 1.521200 25.456858 -7.355619 -0.000002 -82.597232 162.438578 -0.333612 -0.000005 -0.000003 -0.867898 -80.249771 -1.830880 2.353472 -0.000005 0.000000 -1.915330 67.263068 -7.194358 -1.483346 25.456957 7.355616 -0.000001 
52.324299 4.862865 58.883102 -1.871950 4.060949 -1.626956 -0.792236 -0.685632 0.403612 2.431003 -1.377760 0.805091 4.076214 -1.368052 0.821692 12.480895 -3.111610 0.136426 -4.305599 2.549733 0.260060 15.294236 -73.761610 14.829840 -66.821831 -115.552307 -75.657083 0.000001 0.000014 -0.000011 40.025072 -14.376641 4.229555 -0.000007 0.000005 -3.010401 -4.999625 -7.998747 -0.000026 -6.508538 60.860906 7.806809 -51.441016 127.762172 53.504355 0.000003 0.000000 0.000002 29.138967 19.624218 -4.197546 0.000004 -0.000003 3.000002 -5.000338 7.999179 -0.000202 -78.521289 -177.438848 4.452957 179.999964 0.000005 -1.265998 107.023600 -1.762486 -3.958203 0.000005 0.000004 1.601010 66.728899 7.201494 1.521186 25.456860 -7.355618 -0.000002 -82.613979 162.441078 -0.325051 -0.000004 -0.000003 -0.867899 -80.249627 -1.832853 2.351842 -0.000004 0.000000 -1.915551 67.262754 -7.194368 -1.483168 25.456959 7.355613 -0.000000 
52.333698 4.867172 58.874786 -1.859280 4.064886 -1.626147 -0.793841 -0.687074 0.403607 2.427946 -1.381559 0.804023 4.073149 -1.371848 0.820639 12.550913 -3.053638 0.139192 -4.366430 2.504927 0.259846 15.474400 -73.772853 15.021253 -66.784169 -115.462476 -75.506280 -0.000001 0.000014 -0.000010 40.058482 -14.324606 4.207207 -0.000008 0.000008 -3.010399 -4.999624 -7.998750 -0.000026 -6.464135 60.920950 7.759775 -51.438752 127.694007 53.426566 0.000000 0.000000 0.000002 29.071119 19.614828 -4.183351 0.000000 -0.000004 2.999998 -5.000329 7.999179 -0.000201 -78.531609 -177.441321 4.454570 179.999964 0.000006 -1.265998 107.026380 -1.764835 -3.958806 0.000004 0.000004 1.601010 66.730463 7.201468 1.521277 25.456856 -7.355619 -0.000001 -82.630399 162.443714 -0.317528 -0.000004 -0.000005 -0.867898 -80.249491 -1.834840 2.350014 -0.000004 0.000000 -1.915778 67.262446 -7.194375 -1.482990 25.456960 7.355614 -0.000001 
52.326096 4.870289 58.875591 -1.846753 4.068792 -1.625300 -0.795392 -0.688500 0.403602 2.425000 -1.385299 0.802994 4.070204 -1.375593 0.819627 12.620637 -2.996370 0.141832 -4.427017 2.460785 0.259569 15.650670 -73.783426 15.208576 -66.747641 -115.373821 -75.358242 -0.000000 0.000015 -0.000010 40.091776 -14.272958 4.184928 -0.000007 0.000008 -3.010399 -4.999628 -7.998748 -0.000027 -6.420272 60.979936 7.713290 -51.435887 127.626647 53.349050 0.000000 0.000000 0.000002 29.004726 19.605134 -4.169319 0.000002 -0.000002 3.000001 -5.000331 7.999176 -0.000202 -78.541684 -177.443957 4.457288 179.999964 0.000005 -1.265998 107.029051 -1.767175 -3.960421 0.000004 0.000004 1.601011 66.732048 7.201483 1.521179 25.456853 -7.355619 -0.000002 -82.646812 162.446351 -0.309407 -0.000004 -0.000005 -0.867894 -80.249450 -1.836794 2.348381 -0.000005 0.000000 -1.915990 67.262125 -7.194381 -1.482813 25.456959 7.355617 -0.000002 
52.317802 4.870594 58.880093 -1.834473 4.072608 -1.624360 -0.796845 -0.689903 0.403600 2.422232 -1.388948 0.802029 4.067440 -1.379239 0.818678 12.689784 -2.940218 0.144350 -4.487234 2.417715 0.259256 15.820800 -73.793302 15.389427 -66.707405 -115.288443 -75.208408 0.000001 0.000014 -0.000010 40.125046 -14.222085 4.162993 -0.000006 0.000008 -3.010400 -4.999623 -7.998748 -0.000027 -6.377375 61.037166 7.667788 -51.430969 127.561706 53.270428 -0.000000 -0.000000 0.000002 28.940615 19.594810 -4.155452 0.000002 -0.000003 2.999999 -5.000332 7.999179 -0.000202 -78.551615 -177.446348 4.459421 179.999964 0.000005 -1.265998 107.031762 -1.769223 -3.961068 0.000004 0.000004 1.601000 66.733407 7.201473 1.521286 25.456858 -7.355619 -0.000002 -82.662870 162.449069 -0.301645 -0.000004 -0.000003 -0.867887 -80.249313 -1.838763 2.346654 -0.000005 0.000000 -1.916201 67.261913 -7.194363 -1.482623 25.456960 7.355618 0.000000 
52.315800 4.875118 58.875889 -1.822525 4.076334 -1.623322 -0.798162 -0.691272 0.403598 2.419695 -1.392468 0.801153 4.064906 -1.382764 0.817819 12.758150 -2.885592 0.146759 -4.546905 2.376106 0.258928 15.982176 -73.802072 15.561032 -66.666417 -115.206822 -75.061067 -0.000001 0.000013 -0.000011 40.158032 -14.172268 4.141477 -0.000006 0.000008 -3.010401 -4.999624 -7.998751 -0.000025 -6.335861 61.092197 7.623732 -51.424214 127.499332 53.191563 0.000001 0.000000 0.000002 28.879693 19.583619 -4.141800 -0.000002 -0.000002 3.000000 -5.000339 7.999179 -0.000200 -78.561246 -177.448670 4.461970 179.999964 0.000006 -1.265998 107.034248 -1.771543 -3.962676 0.000005 0.000004 1.600980 66.734671 7.201496 1.521207 25.456856 -7.355619 -0.000002 -82.678600 162.451910 -0.293920 -0.000004 -0.000005 -0.867876 -80.249272 -1.840716 2.344920 -0.000005 0.000000 -1.916400 67.261606 -7.194371 -1.482545 25.456957 7.355617 -0.000002 
52.325901 4.879658 58.867687 -1.810977 4.079929 -1.622140 -0.799312 -0.692598 0.403599 2.417478 -1.395837 0.800393 4.062680 -1.386120 0.817072 12.825544 -2.832924 0.149079 -4.605904 2.336368 0.258615 16.132536 -73.809722 15.721036 -66.623407 -115.130010 -74.915468 -0.000000 0.000013 -0.000011 40.190756 -14.123656 4.120456 -0.000008 0.000006 -3.010401 -4.999623 -7.998749 -0.000025 -6.296190 61.144222 7.581582 -51.415957 127.439732 53.113402 0.000001 0.000001 0.000002 28.822801 19.571414 -4.128452 -0.000000 -0.000002 3.000000 -5.000335 7.999179 -0.000202 -78.570432 -177.450678 4.463961 179.999964 0.000005 -1.265998 107.036735 -1.773867 -3.964297 0.000005 0.000004 1.600950 66.735722 7.201490 1.521237 25.456858 -7.355618 -0.000002 -82.694009 162.454902 -0.285831 -0.000005 -0.000002 -0.867858 -80.249320 -1.842636 2.343281 -0.000004 0.000000 -1.916590 67.261285 -7.194379 -1.482366 25.456957 7.355613 -0.000001 
